<?xml version="1.0" encoding="utf-8"?>
<!-- Generator: Adobe Illustrator 17.1.0, SVG Export Plug-In . SVG Version: 6.00 Build 0)  -->
<!DOCTYPE svg PUBLIC "-//W3C//DTD SVG 1.1//EN" "http://www.w3.org/Graphics/SVG/1.1/DTD/svg11.dtd">
<svg version="1.1" id="Layer_1" xmlns="http://www.w3.org/2000/svg" xmlns:xlink="http://www.w3.org/1999/xlink" x="0px" y="0px"
	 viewBox="0 0 100 100" enable-background="new 0 0 100 100" xml:space="preserve">
<g>
	<path d="M49.7,37.3c-7.2,0-13,5.8-13,13s5.8,13,13,13s13-5.8,13-13S56.8,37.3,49.7,37.3z M49.7,59.3c-5,0-9-4-9-9c0-5,4-9,9-9
		c5,0,9,4,9,9C58.7,55.2,54.6,59.3,49.7,59.3z"/>
	<path d="M47.6,43.6c-2.2,0.7-4,2.4-4.6,4.7c-0.2,0.5,0.1,1.1,0.7,1.2c0.1,0,0.2,0,0.3,0c0.4,0,0.8-0.3,1-0.7
		c0.5-1.6,1.7-2.8,3.3-3.3c0.5-0.2,0.8-0.7,0.7-1.3C48.6,43.7,48.1,43.4,47.6,43.6z"/>
	<path d="M81.3,49.1c-0.6-0.8-13.8-19.9-31.6-19.9c-17.8,0-31.1,19.1-31.7,19.9c-0.5,0.7-0.5,1.6,0,2.3c0.6,0.8,13.8,19.9,31.7,19.9
		c17.8,0,31.1-19.1,31.6-19.9C81.8,50.7,81.8,49.8,81.3,49.1z M49.7,67.3c-13.4,0-24.5-13-27.5-17c3.1-4,14.1-17,27.5-17
		c13.4,0,24.5,13,27.5,17C74.1,54.2,63.1,67.3,49.7,67.3z"/>
</g>
</svg>
